<?xml version="1.0" encoding="utf-8"?>
<!-- Generator: Adobe Illustrator 25.4.1, SVG Export Plug-In . SVG Version: 6.00 Build 0)  -->
<svg version="1.1" id="Capa_1" xmlns="http://www.w3.org/2000/svg" xmlns:xlink="http://www.w3.org/1999/xlink" x="0px" y="0px"
	 viewBox="0 0 299.9 299.9" style="enable-background:new 0 0 299.9 299.9;" xml:space="preserve">
<style type="text/css">
	.st0{fill:#FAFCFF;}
</style>
<g>
	<path class="st0" d="M293.5,53.6H55.7c-0.5,0-0.9,0.2-1.3,0.3l-9.7-32.1c-0.1-0.3-0.3-0.6-0.5-0.9c-0.3-3.3-3-5.9-6.3-5.9
		c0,0,0,0,0,0L6.4,15.1C2.8,15.1,0,18,0,21.5c0,3.5,2.9,6.4,6.4,6.4c0,0,0,0,0,0l26.7-0.1L94.6,232c-6.1,5.6-10,13.5-10,22.5
		c0,16.9,13.7,30.5,30.5,30.5c16.9,0,30.5-13.7,30.5-30.5c0-4.4-1-8.5-2.6-12.3h88.8c-1.7,3.8-2.6,7.9-2.6,12.3
		c0,16.9,13.7,30.5,30.5,30.5c16.9,0,30.5-13.7,30.5-30.5s-13.7-30.5-30.5-30.5c-6.4,0-12.3,2-17.2,5.4H132.4
		c-4.9-3.4-10.8-5.4-17.2-5.4c-3.2,0-6.2,0.6-9.1,1.5L96.9,195l161.9-0.1c2.8,0,5.2-1.9,6-4.4c0.2-0.4,0.5-0.8,0.6-1.3l34.3-126.4
		c0.2-0.8,0.2-1.6,0.2-2.4c0-0.1,0.1-0.2,0.1-0.4C299.9,56.5,297,53.6,293.5,53.6z M259.8,236.8c9.7,0,17.7,7.9,17.7,17.7
		c0,9.7-7.9,17.7-17.7,17.7s-17.7-7.9-17.7-17.7C242.1,244.7,250,236.8,259.8,236.8z M115.2,236.8c9.8,0,17.7,7.9,17.7,17.7
		c0,9.7-7.9,17.7-17.7,17.7s-17.7-7.9-17.7-17.7C97.5,244.7,105.4,236.8,115.2,236.8z M254,182l-161,0.1L58.2,66.5h227.2L254,182z"
		/>
</g>
</svg>
